# xmcd
#
# Track frame offsets: 
#        150
#        15322
#        35738
#        51774
#
# Disc length: 1021 seconds
#
# Revision: 1
# Processed by: cddbd v1.5.2PL0 Copyright (c) Steve Scherf et al.
# Submitted via: ExactAudioCopy v0.95a4
#
DISCID=2803fb04
DTITLE=David Antony Clark - Songs of Magic Sex and War
DYEAR=2008
DGENRE=New Age
TTITLE0=Qunitessential Warrior
TTITLE1=I, Pilot
TTITLE2=Paint Myself in Woad
TTITLE3=I Am Picasso
EXTD=
EXTT0=
EXTT1=
EXTT2=
EXTT3=
PLAYORDER=
